<?xml version="1.0" encoding="utf-8"?>
<!-- Generator: Adobe Illustrator 24.1.2, SVG Export Plug-In . SVG Version: 6.00 Build 0)  -->
<svg version="1.1" id="Layer_1" xmlns="http://www.w3.org/2000/svg" xmlns:xlink="http://www.w3.org/1999/xlink" x="0px" y="0px"
	 viewBox="0 0 57 53" style="enable-background:new 0 0 57 53;" xml:space="preserve">
<style type="text/css">
	.st0{fill:#ED6A5B;}
	.st1{fill:#F9B4AD;}
</style>
<path class="st0" d="M46.38,0H22.1H10.62C4.76,0,0,4.76,0,10.62v31.76C0,48.24,4.76,53,10.62,53H22.1v0.07H57V42.38V10.62V0H46.38z"
	/>
<g id="Layer_2_1_">
	<g id="Dislike">
		<path class="st1" d="M21.26,30.9h2.43c-1.66,6.65,2.91,6.65,2.91,6.65h1.15c1.06,0,1.92-0.86,1.92-1.91c0-0.08,0-0.16-0.02-0.24
			l-0.08-0.48c-0.06-0.45,0.04-0.9,0.28-1.28l1.39-2c0.3-0.49,0.15-1.13-0.34-1.43c-0.49-0.3-1.13-0.15-1.43,0.34c0,0,0,0,0,0.01
			l-1.75,2.59c-0.2,0.33-0.3,0.71-0.3,1.09c-0.01,0.09-0.01,0.17,0,0.26l0.07,0.46c0.03,0.26-0.15,0.49-0.41,0.52
			c-0.02,0-0.04,0-0.06,0h-0.44c-0.32-0.04-0.62-0.2-0.83-0.44c-0.22-0.29-0.67-1.21-0.07-3.63l0.65-2.58h-4.92
			c-0.52,0-0.95-0.42-0.95-0.95c0-0.09,0.01-0.18,0.04-0.26l1.66-5.99c0.11-0.41,0.48-0.69,0.91-0.7h9.06
			c0.6,0.01,1.09-0.46,1.11-1.06c0-0.01,0-0.03,0-0.04c-0.03-0.55-0.49-0.98-1.04-0.98h-9.22c-1.3,0-2.44,0.87-2.79,2.13l-1.73,6.26
			c-0.42,1.55,0.5,3.15,2.05,3.57C20.75,30.86,21.01,30.9,21.26,30.9z"/>
		<path class="st1" d="M32.9,29.65h4.83c0.73,0,1.33-0.59,1.33-1.33v-9.4c0-0.73-0.59-1.33-1.33-1.33H32.9
			c-0.73,0-1.33,0.59-1.33,1.33c0,0,0,0,0,0v9.4C31.58,29.05,32.17,29.65,32.9,29.65z M33.66,20.14c0-0.26,0.21-0.47,0.47-0.47h2.39
			c0.26,0,0.47,0.21,0.47,0.47v6.97c0,0.26-0.21,0.47-0.47,0.47h-2.39c-0.26,0-0.47-0.21-0.47-0.47L33.66,20.14z"/>
	</g>
</g>
</svg>
